<?xml version="1.0" encoding="UTF-8"?>
<svg version="1.1" xmlns="http://www.w3.org/2000/svg" width="1024" height="1024">
<path d="M0 0 C1.74438477 0.15063477 1.74438477 0.15063477 4 1 C5.99194336 3.39819336 5.99194336 3.39819336 8.08984375 6.58984375 C8.47059052 7.16110992 8.85133728 7.7323761 9.24362183 8.32095337 C10.06005256 9.54819891 10.87139609 10.77884099 11.6781311 12.01248169 C13.79627467 15.25018683 15.95214924 18.46269682 18.1015625 21.6796875 C18.52607193 22.31747635 18.95058136 22.9552652 19.38795471 23.61238098 C24.20200405 30.83465244 29.27369516 37.85803616 34.41992188 44.84619141 C36.12007446 47.16367381 37.80277389 49.49324522 39.484375 51.82421875 C45.2727311 59.8130677 51.16969597 67.58505751 57.67211914 75.00708008 C62.05208115 80.00910037 66.15040117 85.1986567 70.2265625 90.44921875 C72.09104185 92.84895849 73.98151688 95.2239756 75.8984375 97.58203125 C81.34325584 104.28548691 86.55645104 111.08619176 91.5625 118.125 C97.01133072 125.76965224 102.81166498 132.94761679 109 140 C117.15499424 149.31999341 124.90204441 158.84694125 132.32470703 168.76269531 C133.43954072 170.25152305 134.55769829 171.73786776 135.67919922 173.22167969 C143.6130692 183.72232261 151.10155284 194.45906895 158.31958008 205.46508789 C161.43738357 210.21041136 164.61117105 214.87016909 167.99609375 219.4296875 C172.28379115 225.27352155 176.01847597 231.3786835 179.6875 237.625 C180.20032532 238.49572144 180.20032532 238.49572144 180.72351074 239.3840332 C203.0173165 277.30693763 222.19549649 318.39638781 230 362 C230.15259277 362.84852539 230.30518555 363.69705078 230.46240234 364.57128906 C232.69233461 377.26254344 234.14128409 389.8297318 234.203125 402.73046875 C234.21013931 403.71582611 234.21715363 404.70118347 234.22438049 405.71640015 C234.24176807 408.87348056 234.24823137 412.03037349 234.25 415.1875 C234.25067474 416.26546844 234.25134949 417.34343689 234.25204468 418.45407104 C234.23670286 433.85568321 233.93197793 448.83509448 231 464 C230.83371094 464.92280762 230.66742187 465.84561523 230.49609375 466.79638672 C223.03581283 507.64142474 205.13072151 545.5723318 178 577 C177.33097656 577.77988281 176.66195313 578.55976562 175.97265625 579.36328125 C142.8986981 616.99491706 101.99871229 639.96064629 53.6875 652.3125 C52.79514648 652.54283936 51.90279297 652.77317871 50.98339844 653.01049805 C34.99806825 656.91792761 19.39564118 658.49725662 2.95703125 658.39111328 C0.00213494 658.37501163 -2.9513943 658.39107688 -5.90625 658.41015625 C-21.3793826 658.42753809 -36.48988483 656.91440235 -51.4375 652.75 C-52.20715088 652.54020508 -52.97680176 652.33041016 -53.76977539 652.11425781 C-102.67833675 638.42400919 -147.75283998 610.44092405 -179 570 C-179.78503906 569.03191406 -180.57007813 568.06382812 -181.37890625 567.06640625 C-204.87278158 537.84954513 -219.63054875 502.42741488 -227.25 465.9375 C-227.40114258 465.23230225 -227.55228516 464.52710449 -227.70800781 463.80053711 C-230.97788726 447.09130552 -231.41073826 430.03264828 -231.375 413.0625 C-231.37412384 412.03708099 -231.37324768 411.01166199 -231.37234497 409.95516968 C-231.19603142 347.10518548 -208.04492596 290.19749469 -176 237 C-175.5477002 236.24493164 -175.09540039 235.48986328 -174.62939453 234.71191406 C-168.15071337 223.94025285 -160.99409412 213.67284953 -153.71972656 203.42675781 C-152.115065 201.16237168 -150.52017993 198.89153986 -148.9296875 196.6171875 C-138.44305043 181.63727066 -127.7168749 166.89535653 -116.09375 152.7734375 C-109.48537364 144.74368343 -103.14093616 136.50099904 -96.8125 128.25 C-91.64788959 121.51781136 -86.35968009 114.89404356 -81 108.31640625 C-74.36031907 100.16702973 -67.79006954 91.97229833 -61.32080078 83.68701172 C-60.03017302 82.03853892 -58.73316253 80.39533643 -57.43359375 78.75390625 C-44.83458844 62.82829034 -32.56931064 46.69037677 -21 30 C-19.62663553 28.02580966 -18.25291498 26.051867 -16.87890625 24.078125 C-14.75675973 21.02933335 -12.63538582 17.98003007 -10.51757812 14.92822266 C-7.04600393 9.92675803 -3.55360567 4.94355162 0 0 Z M-53 143 C-54.04929687 143.55429687 -55.09859375 144.10859375 -56.1796875 144.6796875 C-80.17713436 157.98331188 -99.61705166 179.3652129 -116 201 C-116.95303485 202.24486069 -117.90616154 203.48965107 -118.859375 204.734375 C-171.43302516 273.75589207 -209.10606768 356.42210802 -197.48339844 445.04858398 C-193.79172583 469.8527767 -186.84035291 493.41970068 -176 516 C-175.66661621 516.69947754 -175.33323242 517.39895508 -174.98974609 518.11962891 C-155.24898744 558.94775821 -121.48061836 593.01284576 -78.48898315 608.42692566 C-75.47528235 609.4753585 -72.45188823 610.49146573 -69.42138672 611.49023438 C-67.12828823 612.24891208 -64.84358812 613.02980015 -62.55859375 613.8125 C-16.44318716 629.33625363 36.45827444 624.9032196 80 604 C80.68545898 603.67773438 81.37091797 603.35546875 82.07714844 603.0234375 C127.89549327 581.4412205 165.2358368 543.01414494 182.9375 495.25 C184.01523258 492.18360973 185.02091379 489.09915476 186 486 C186.26361328 485.18144531 186.52722656 484.36289062 186.79882812 483.51953125 C191.12385206 469.90873303 194.0204868 456.13995552 196 442 C196.1045752 441.25935303 196.20915039 440.51870605 196.31689453 439.75561523 C197.36560289 431.02919857 197.24385123 422.21356318 197.25 413.4375 C197.25067474 412.57106873 197.25134949 411.70463745 197.25204468 410.81195068 C197.2342137 396.35019513 196.44348041 382.27749625 194 368 C193.83902832 367.02095703 193.67805664 366.04191406 193.51220703 365.03320312 C185.38661893 316.79484149 166.11031444 270.24416469 140 229 C139.18619873 227.71198486 139.18619873 227.71198486 138.35595703 226.39794922 C134.64189389 220.5506694 130.84693253 214.76057894 127 209 C126.52852539 208.29149902 126.05705078 207.58299805 125.57128906 206.85302734 C114.75455716 190.65863704 103.19933915 175.19933915 89.40625 161.40625 C87.98678566 159.98678566 86.58332707 158.55043184 85.21875 157.078125 C79.51015599 151.00625682 72.93604553 146.52277422 66 142 C65.18789063 141.4534375 64.37578125 140.906875 63.5390625 140.34375 C26.11116754 116.3285819 -15.80606002 123.13528166 -53 143 Z " fill="#d1d5db" transform="translate(511,182)"/>
<path d="M0 0 C5.34856996 4.75428441 7.5886961 10.80293171 8.015625 17.85546875 C8.19677598 32.66456117 8.19677598 32.66456117 4.8125 38.5 C1.22373098 40.89251268 0.05000792 41.05967086 -4.1875 40.5 C-6.109375 39.37890625 -6.109375 39.37890625 -8.125 38 C-11.94372908 35.43714358 -14.51790346 34.6918006 -19.1875 35.5 C-21.8344872 36.89685006 -21.8344872 36.89685006 -23.1875 39.5 C-23.28215191 42.97202607 -23.28215191 42.97202607 -22.1875 46.5 C-19.62928885 48.84587583 -19.62928885 48.84587583 -16.375 50.5625 C-11.60338403 53.31155524 -8.85211922 55.62336434 -6.1875 60.5 C-5.6875 66.5 -5.6875 66.5 -7.1875 69.5 C-11.86615408 69.90683949 -14.91438078 69.36280765 -19.25 67.5 C-23.07921449 65.85890808 -25.95878961 64.88116433 -30.1875 65.5 C-31.1775 66.16 -32.1675 66.82 -33.1875 67.5 C-33.72980711 70.98626002 -33.51831675 72.898515 -31.8125 76 C-29.36132066 78.33445652 -27.23027765 79.71397598 -24.3125 81.375 C-19.6611547 84.05158775 -15.96600341 86.8364727 -13.1875 91.5 C-12.625 94.3125 -12.625 94.3125 -13.1875 96.5 C-17.88458975 99.63139317 -23.35992434 99.03858584 -28.8125 98 C-29.59625 97.835 -30.38 97.67 -31.1875 97.5 C-37.71098164 96.96528839 -41.58775701 98.1639829 -47.1875 101.5 C-46.27735164 105.7841327 -44.53091296 108.67150085 -41.1875 111.5 C-39.23484568 112.53102336 -37.25205378 113.50602337 -35.25 114.4375 C-29.95832531 116.93345001 -26.13180877 119.35325554 -23.1875 124.5 C-22.125 127.75 -22.125 127.75 -22.1875 130.5 C-23.1875 132.375 -23.1875 132.375 -25.1875 133.5 C-29.86826504 134.09754447 -33.63987094 133.19524669 -38.1875 132 C-42.74800055 130.80286861 -46.49506542 129.91344568 -51.1875 130.5 C-53.58833438 131.85885116 -53.58833438 131.85885116 -55.1875 133.5 C-55.0226015 137.70491165 -54.73560928 139.89263566 -51.875 143.0625 C-48.84093127 145.30859457 -45.51534499 146.85910643 -42.125 148.5 C-34.02720976 152.44327177 -34.02720976 152.44327177 -31.1875 156.5 C-30.625 159.625 -30.625 159.625 -31.1875 162.5 C-32.60546875 164.21484375 -32.60546875 164.21484375 -35.1875 165.5 C-39.39276901 165.6559854 -43.56957171 165.09722377 -47.74609375 164.65039062 C-52.18591939 164.28316213 -54.63324567 164.2422778 -58.7578125 166.16015625 C-61.38766268 168.69276117 -61.9879431 169.90797577 -62.1875 173.5 C-57.3074398 178.3527973 -52.91866402 181.2482376 -46.46875 183.6171875 C-43.38931814 184.80888545 -41.30775716 185.94106895 -39.1875 188.5 C-39.12299787 192.17662122 -39.19055632 194.45950053 -41.796875 197.1796875 C-45.07373453 198.98945633 -47.77420971 198.9464201 -51.5 199.0625 C-57.72594321 199.27024128 -63.5621876 199.5310157 -68.6875 203.375 C-70.41985712 205.33837373 -70.41985712 205.33837373 -69.99609375 207.47265625 C-68.46777796 211.30452047 -64.75793593 212.77293246 -61.1875 214.5 C-58.60307855 215.35766199 -56.03310026 216.08677796 -53.38671875 216.7265625 C-50.90548616 217.59918071 -49.74973357 218.39174304 -48.1875 220.5 C-48.1875 224.555983 -48.43186735 226.70008642 -51.25390625 229.6875 C-54.89894506 231.93956126 -57.96536946 232.05863776 -62.125 232.0625 C-68.51241627 232.10424782 -73.49342034 232.80592034 -78.1875 237.5 C-78.93941978 239.86891496 -78.93941978 239.86891496 -78.1875 242.5 C-73.46591283 246.90681469 -69.0054224 248.34356613 -62.73828125 249.62890625 C-59.65654669 250.68132096 -58.22792726 251.98690496 -56.1875 254.5 C-55.625 257.5 -55.625 257.5 -56.1875 260.5 C-61.60684383 265.77672952 -66.77178204 265.95404656 -73.97851562 266.48632812 C-78.55235236 266.8683056 -78.55235236 266.8683056 -82.23046875 269.4140625 C-83.52079623 272.22644974 -83.22329983 273.61455762 -82.1875 276.5 C-80.29484905 279.20378707 -79.07140764 279.52762198 -75.7890625 280.30859375 C-73.7999943 280.64076814 -71.80806657 280.9381451 -69.8125 281.22851562 C-65.25056047 281.99641182 -62.44631711 283.19171318 -59.1875 286.5 C-58.625 289.5 -58.625 289.5 -59.1875 292.5 C-62.96783848 297.71425997 -68.71921529 298.19664332 -74.6328125 299.56640625 C-79.16283192 300.69517347 -82.32974646 301.52962774 -85.1875 305.5 C-85.62388662 308.55470637 -85.8174491 310.49064974 -84.15625 313.15234375 C-81.10551572 315.240644 -77.82766818 314.95515904 -74.25 315 C-66.93016531 315.09223914 -66.93016531 315.09223914 -63.71875 316.85546875 C-62.1875 318.5 -62.1875 318.5 -61.625 321.3125 C-62.34315487 325.38204425 -64.12556157 327.83742456 -67.1875 330.5 C-69.81131264 331.77251645 -72.48786561 332.49034525 -75.3125 333.1875 C-81.53900142 334.51484216 -81.53900142 334.51484216 -86.1875 338.5 C-86.6875 341 -86.6875 341 -86.1875 343.5 C-84.63786505 345.51276482 -83.8068799 346.41104692 -81.25805664 346.77709961 C-80.54512451 346.73593018 -79.83219238 346.69476074 -79.09765625 346.65234375 C-78.31326172 346.62462891 -77.52886719 346.59691406 -76.72070312 346.56835938 C-75.0772516 346.48131491 -73.43401113 346.3901869 -71.79101562 346.29492188 C-65.78781122 346.09300934 -65.78781122 346.09300934 -62.65234375 348.21875 C-60.27417918 351.92234496 -60.41204069 355.25112919 -61.1875 359.5 C-63.3819214 362.33446097 -65.8945532 362.71520857 -69.25 363.5 C-71.4996762 364.02687584 -73.11790728 364.45959132 -75.125 365.625 C-76.91530423 368.78436041 -76.95501505 371.89648333 -77.1875 375.5 C-74.88539527 377.80210473 -68.19093793 376.80288565 -64.88867188 376.84179688 C-58.79713498 377.0542349 -58.79713498 377.0542349 -55.74609375 379.28515625 C-47.28815712 391.30432936 -46.94174894 410.24714232 -48.1875 424.5 C-49.08044522 427.16972397 -49.68872925 428.16994663 -52.03515625 429.72265625 C-60.8000396 432.88819488 -69.2024345 429.1792174 -77.1875 425.5 C-93.23129184 417.90461734 -106.47175599 407.79364462 -119.1875 395.5 C-119.84105469 394.89800781 -120.49460937 394.29601562 -121.16796875 393.67578125 C-150.52196031 365.99517639 -169.97718736 322.78403489 -176.1875 283.5 C-176.30319336 282.78150879 -176.41888672 282.06301758 -176.53808594 281.32275391 C-186.65618368 214.35415742 -164.75860254 144.15144952 -126.1875 89.5 C-125.36834753 88.32171333 -124.54933794 87.14332731 -123.73046875 85.96484375 C-115.85372055 74.71279012 -107.52669671 63.82576474 -98.21875 53.71484375 C-96.40908012 51.74160756 -94.66910109 49.72892187 -92.9375 47.6875 C-84.53590781 38.08012375 -75.34035016 29.23616626 -65.1875 21.5 C-64.6713916 21.10216309 -64.1552832 20.70432617 -63.62353516 20.29443359 C-47.81436135 8.19562426 -20.69611949 -9.88471379 0 0 Z " fill="#d1d5db" transform="translate(524.1875,334.5)"/>
<path d="M0 0 C35.14107021 15.83517361 60.25349598 72.91335127 73.1875 106.4375 C79.98937337 124.59579046 84.74461304 142.88275489 88 162 C88.16661133 162.969375 88.33322266 163.93875 88.50488281 164.9375 C99.687978 233.10112779 81.76820245 303.6791226 42.05859375 359.79296875 C34.7893241 369.87687097 26.54671434 379.0002203 18 388 C17.1028125 388.95132812 16.205625 389.90265625 15.28125 390.8828125 C-0.28943544 406.95725541 -20.35973115 423.21452101 -43.4375 425.3125 C-48.67107925 424.8534141 -51.45809247 422.69112439 -54.9375 418.875 C-56.57597713 414.44147365 -55.73278166 410.5971089 -55 406 C-54.75830078 404.45699219 -54.75830078 404.45699219 -54.51171875 402.8828125 C-54.34285156 401.80773437 -54.17398437 400.73265625 -54 399.625 C-53.0287337 393.42049289 -52.33253792 387.27181993 -52 381 C-51.93425781 379.77925781 -51.86851562 378.55851562 -51.80078125 377.30078125 C-51.55584638 368.94765761 -52.50563835 362.57898709 -56 355 C-56.3815625 354.15179687 -56.763125 353.30359375 -57.15625 352.4296875 C-57.8430524 350.90400502 -58.54413142 349.38458656 -59.265625 347.875 C-60 346 -60 346 -60 343 C-56.04823602 341.21533239 -52.11844666 340.31180802 -47.890625 339.46484375 C-46.0005625 339.1731725 -46.0005625 339.1731725 -45 338 C-44.36486874 332.70100897 -44.36486874 332.70100897 -46.4375 328.125 C-48.85474338 327.0637712 -50.85927522 326.60626863 -53.4375 326.125 C-57.92641582 325.22869833 -60.25418866 323.80870605 -63 320 C-63.5 317.375 -63.5 317.375 -63 315 C-59.51696134 310.68187771 -54.32638884 310.88219949 -49.16015625 310.18359375 C-43.85331856 309.41079588 -43.85331856 309.41079588 -40 306 C-40.08821427 303.2653577 -40.90000998 302.11937343 -42.65234375 300.02734375 C-45.46366925 297.59959344 -47.99178479 296.69086205 -51.5 295.5 C-55.97071763 293.98241695 -59.0109521 292.73630988 -62 289 C-62.58882246 285.46706526 -62.54338795 283.78551937 -60.4921875 280.8203125 C-56.97711438 278.25287665 -53.78649139 278.63903915 -49.625 278.875 C-44.24632483 279.1271254 -40.09863241 279.08801137 -35 277 C-34.67505528 273.50684425 -34.64650665 271.56253891 -36.5390625 268.55078125 C-39.58344871 265.39525079 -42.71577459 263.7697012 -46.625 261.875 C-53.74507505 258.38238743 -53.74507505 258.38238743 -56 255 C-55.79972461 252.32966152 -55.40724177 250.58479354 -53.87109375 248.37890625 C-51.08894712 246.32859777 -48.66600889 246.55112261 -45.25 246.4375 C-36.38078213 246.25379322 -36.38078213 246.25379322 -29 242 C-28.44435647 238.604479 -28.44435647 238.604479 -30 235 C-32.64387186 233.16662656 -35.32069469 231.80870353 -38.23828125 230.45703125 C-41.12028378 228.93654052 -42.96197823 227.53663517 -45 225 C-45 221.37498245 -44.95859413 219.02503135 -42.421875 216.3125 C-39.0908523 214.5073006 -35.94564191 214.59964428 -32.25 214.5625 C-25.88052281 214.35589512 -21.39099449 213.48168394 -16 210 C-15.91773332 206.95613276 -16.02391783 204.92824652 -17 202 C-19.18137797 200.97549761 -19.18137797 200.97549761 -22 200 C-23.42467357 199.32924973 -24.84106251 198.64070399 -26.25 197.9375 C-26.93578125 197.59589844 -27.6215625 197.25429688 -28.328125 196.90234375 C-30 196 -30 196 -31 195 C-31.4375 191.6875 -31.4375 191.6875 -31 188 C-26.64729437 184.31847493 -23.10218285 183.43281495 -17.5 182.9375 C-12.3243371 182.46937602 -8.45461906 181.7723611 -4 179 C-3.03093173 176.41585574 -3.03093173 176.41585574 -3 174 C-6.88699096 170.37214177 -10.87687375 168.71333816 -15.79296875 166.9296875 C-18 166 -18 166 -20 164 C-20.475893 161.00867259 -20.58243413 158.93752408 -18.94921875 156.30859375 C-14.43521156 150.78259674 -10.82621264 150.62221539 -4.04296875 149.6953125 C-0.84396344 148.96434595 1.25568524 147.75291309 4 146 C4.66 146 5.32 146 6 146 C6.00591071 142.62395678 6.00591071 142.62395678 5 139 C2.17683547 136.75036354 2.17683547 136.75036354 -1.375 135.25 C-8.96564501 131.64823053 -8.96564501 131.64823053 -11 129 C-11.4375 126.5625 -11.4375 126.5625 -11 124 C-7.60855653 119.42018012 -2.96871498 118.34823146 2.25 116.75 C3.51070312 116.3478125 3.51070312 116.3478125 4.796875 115.9375 C6.86112394 115.28069352 8.93012363 114.63885073 11 114 C11.40751644 110.20596548 11.40751644 110.20596548 9.8203125 108.47265625 C5.54601472 104.91730717 1.18969515 102.39955367 -3.86328125 100.078125 C-6 99 -6 99 -8 97 C-7.875 94.5625 -7.875 94.5625 -7 92 C-4.07810047 89.36495362 -1.2250592 88.28140574 2.5 87.125 C6.93160709 85.56682799 9.84271657 84.42243104 12 80 C11.622881 77.37889592 11.622881 77.37889592 11 75 C9.95199219 74.67386719 8.90398437 74.34773438 7.82421875 74.01171875 C6.44515825 73.57079465 5.06626038 73.12936168 3.6875 72.6875 C2.99720703 72.47416016 2.30691406 72.26082031 1.59570312 72.04101562 C-4.9914434 69.90894405 -4.9914434 69.90894405 -7 67 C-7 62.12691064 -4.11064708 59.48999429 -1 56 C1.48836965 52.26744552 1.54226552 50.41559065 1 46 C-1.20688307 43.71767582 -1.20688307 43.71767582 -4 42 C-9.46859849 37.31262987 -10.17058178 31.90947555 -11 25 C-11.15442372 22.12339367 -11.18495554 19.25533382 -11.1875 16.375 C-11.19974609 15.63765625 -11.21199219 14.9003125 -11.22460938 14.140625 C-11.2382242 9.07590859 -10.6333483 5.36835503 -7.75 1.1875 C-4.91355379 -0.73723136 -3.38875292 -0.56479215 0 0 Z " fill="#d1d5db" transform="translate(558,346)"/>
<path d="M0 0 C0.33 0.66 0.66 1.32 1 2 C1.66 2 2.32 2 3 2 C4.14973839 4.581658 5.29490359 7.16518307 6.4375 9.75 C6.76298828 10.47960937 7.08847656 11.20921875 7.42382812 11.9609375 C7.73642578 12.66992188 8.04902344 13.37890625 8.37109375 14.109375 C8.65911865 14.75874023 8.94714355 15.40810547 9.24389648 16.07714844 C14.59023837 29.67346381 10.04939997 47.96807229 8 62 C7.67 62 7.34 62 7 62 C6.18756475 58.44075986 5.86475078 55.14872305 5.875 51.5 C5.87242187 50.5821875 5.86984375 49.664375 5.8671875 48.71875 C6 46 6 46 6.49609375 43.671875 C8.83069014 31.29308484 7.47412929 18.83597124 1.04296875 8.0859375 C-0.34242947 5.31514107 -0.3900966 3.04275349 0 0 Z " fill="#d1d5db" transform="translate(496,690)"/>
<path d="M0 0 C0 8.84551161 -13.72053662 19.70135847 -19.671875 25.6875 C-20.44015625 26.450625 -21.2084375 27.21375 -22 28 C-22.886875 28.928125 -23.77375 29.85625 -24.6875 30.8125 C-27 33 -27 33 -29 33 C-29 33.66 -29 34.32 -29 35 C-30.96147874 36.38938077 -32.96166576 37.7260411 -35 39 C-33.34813663 34.9293367 -30.46825167 32.02150419 -27.5 28.875 C-26.96608643 28.30168945 -26.43217285 27.72837891 -25.88208008 27.13769531 C-22.56145513 23.59267049 -19.15701474 20.15023103 -15.6875 16.75 C-11.92113574 13.04409102 -8.66294789 9.19166906 -5.5703125 4.91015625 C-3.90313453 2.88217111 -2.15367605 1.48706203 0 0 Z " fill="#d1d5db" transform="translate(697,750)"/>
<path d="M0 0 C0.33 0.66 0.66 1.32 1 2 C0.29296875 3.76953125 0.29296875 3.76953125 -0.8125 5.8125 C-2.39794541 8.82429768 -3.80292815 11.8078084 -5 15 C-5.66 15 -6.32 15 -7 15 C-7.17015625 15.556875 -7.3403125 16.11375 -7.515625 16.6875 C-12.01664923 30.860938 -12.01664923 30.860938 -16.12890625 33.22265625 C-16.74636719 33.47917969 -17.36382812 33.73570312 -18 34 C-16.34692006 28.39789574 -13.84971387 23.33216499 -11.25 18.125 C-10.83234375 17.26519531 -10.4146875 16.40539062 -9.984375 15.51953125 C-7.17438939 9.87385894 -3.96654325 4.90237272 0 0 Z " fill="#d1d5db" transform="translate(290,417)"/>
<path d="M0 0 C0.66 0.99 1.32 1.98 2 3 C1.29875 4.0725 0.5975 5.145 -0.125 6.25 C-2.93823248 10.73358927 -5.26240523 15.40868971 -7.5703125 20.16796875 C-9.48080038 23.95240513 -11.64966461 27.47449692 -14 31 C-16.125 31.6875 -16.125 31.6875 -18 32 C-16.43769521 27.62887064 -14.17613586 23.80690923 -11.75 19.875 C-8.36549681 14.32392268 -5.14376586 8.72075904 -2.09375 2.9765625 C-1 1 -1 1 0 0 Z " fill="#d1d5db" transform="translate(724,705)"/>
<path d="M0 0 C2 2 2 2 2.24291992 4.79394531 C2.23881104 5.96022461 2.23470215 7.12650391 2.23046875 8.328125 C2.22853516 9.60300781 2.22660156 10.87789062 2.22460938 12.19140625 C2.21840576 12.8580127 2.21220215 13.52461914 2.20581055 14.21142578 C2.18769473 16.22832044 2.1853 18.24475166 2.18554688 20.26171875 C2.15968295 25.96902452 2.07000754 31.37939184 1 37 C-0.485 37.495 -0.485 37.495 -2 38 C-1.34 25.46 -0.68 12.92 0 0 Z " fill="#d1d5db" transform="translate(746,589)"/>
<path d="M0 0 C0.33 0.66 0.66 1.32 1 2 C-0.03222656 4.50268555 -0.03222656 4.50268555 -1.640625 7.63671875 C-2.21683594 8.77173828 -2.79304688 9.90675781 -3.38671875 11.07617188 C-4.00742044 12.28015012 -4.62851745 13.48392464 -5.25 14.6875 C-10.42719962 24.70298596 -10.42719962 24.70298596 -15 35 C-15.66 34.67 -16.32 34.34 -17 34 C-16.42485617 30.54308288 -15.56158307 27.78702124 -13.9375 24.6875 C-12.25497736 21.44018225 -10.59531911 18.18745314 -8.99609375 14.8984375 C-8.64619385 14.18341064 -8.29629395 13.46838379 -7.93579102 12.73168945 C-7.23816987 11.30513851 -6.54452776 9.87663362 -5.85522461 8.44604492 C-4.22091078 5.13016876 -2.7036577 2.5113573 0 0 Z " fill="#d1d5db" transform="translate(321,441)"/>
<path d="M0 0 C7.02591532 -0.47903968 14.66903428 0.83451714 21 4 C21 4.66 21 5.32 21 6 C13.64971227 5.11796547 6.32650983 4.05987432 -1 3 C-0.67 2.01 -0.34 1.02 0 0 Z " fill="#d1d5db" transform="translate(473,464)"/>
<path d="M0 0 C0.33 0.66 0.66 1.32 1 2 C0.28735352 3.87939453 0.28735352 3.87939453 -0.87109375 6.1328125 C-1.48500977 7.34130859 -1.48500977 7.34130859 -2.11132812 8.57421875 C-2.54896484 9.41597656 -2.98660156 10.25773437 -3.4375 11.125 C-3.87126953 11.97449219 -4.30503906 12.82398438 -4.75195312 13.69921875 C-5.82759468 15.80322092 -6.91050766 17.9031458 -8 20 C-8.66 20 -9.32 20 -10 20 C-9.37519982 15.8702232 -8.00002716 12.59706884 -6.125 8.875 C-5.61195313 7.84117187 -5.09890625 6.80734375 -4.5703125 5.7421875 C-3.21460678 3.37476109 -2.03994056 1.77120588 0 0 Z " fill="#d1d5db" transform="translate(380,451)"/>
<path d="M0 0 C0.66 0.33 1.32 0.66 2 1 C1.25234375 1.72445312 0.5046875 2.44890625 -0.265625 3.1953125 C-1.2606869 4.17159965 -2.25546337 5.14817777 -3.25 6.125 C-3.74113281 6.599375 -4.23226562 7.07375 -4.73828125 7.5625 C-7.2326054 10.02356649 -9.32717018 12.3787657 -11.171875 15.3671875 C-11.77515625 16.23601563 -12.3784375 17.10484375 -13 18 C-13.99 18 -14.98 18 -16 18 C-11.37338295 11.26695568 -5.86878323 5.66001228 0 0 Z " fill="#d1d5db" transform="translate(707,799)"/>
<path d="M0 0 C0.99 0 1.98 0 3 0 C2 3 2 3 -0.65234375 4.640625 C-1.73644531 5.17171875 -2.82054687 5.7028125 -3.9375 6.25 C-5.01902344 6.79140625 -6.10054687 7.3328125 -7.21484375 7.890625 C-8.13394531 8.25671875 -9.05304687 8.6228125 -10 9 C-10.66 8.67 -11.32 8.34 -12 8 C-9.94766315 5.7522025 -8.99332739 4.9977758 -6 4 C-5.34 3.34 -4.68 2.68 -4 2 C-2.68 2 -1.36 2 0 2 C0 1.34 0 0.68 0 0 Z " fill="#d1d5db" transform="translate(603,776)"/>
<path d="M0 0 C0.99 0 1.98 0 3 0 C5.10770759 2.88834003 6 4.38462395 6 8 C6.66 8.33 7.32 8.66 8 9 C8 10.32 8 11.64 8 13 C7.34 13 6.68 13 6 13 C4.02 8.71 2.04 4.42 0 0 Z " fill="#d1d5db" transform="translate(614,416)"/>
<path d="M0 0 C-3.3340947 2.19097652 -6.04179141 3.43454163 -10 4 C-10.66 2.68 -11.32 1.36 -12 0 C-3.42857143 -1.28571429 -3.42857143 -1.28571429 0 0 Z " fill="#d1d5db" transform="translate(546,882)"/>
<path d="M0 0 C1.35439668 2.70879335 1.06501451 5.00933268 1 8 C2.32 8.33 3.64 8.66 5 9 C5 9.33 5 9.66 5 10 C2.625 10.125 2.625 10.125 0 10 C-2 8 -2 8 -2.25 5 C-2 2 -2 2 0 0 Z " fill="#d1d5db" transform="translate(441,639)"/>
<path d="M0 0 C0 0.66 0 1.32 0 2 C-5.47619048 7 -5.47619048 7 -8 7 C-6.13932792 2.84926997 -4.83061881 0 0 0 Z " fill="#d1d5db" transform="translate(545,496)"/>
<path d="M0 0 C0.33 0.66 0.66 1.32 1 2 C1.99 2.33 2.98 2.66 4 3 C4 4.98 4 6.96 4 9 C3.34 9 2.68 9 2 9 C0.93347808 6.69631264 -0.06421005 4.35981813 -1 2 C-0.67 1.34 -0.34 0.68 0 0 Z " fill="#d1d5db" transform="translate(732,406)"/>
<path d="M0 0 C0.8971875 0.309375 0.8971875 0.309375 1.8125 0.625 C-1.04056797 2.94972205 -3.72824837 4.3758258 -7.1875 5.625 C-5.69046729 2.17030914 -4.27938051 -0.73360809 0 0 Z " fill="#d1d5db" transform="translate(486.1875,337.375)"/>
<path d="M0 0 C0 3.10551666 -0.5393715 4.35261084 -2 7 C-2.99 7 -3.98 7 -5 7 C-3.75023244 3.34683329 -3.32901247 2.21934164 0 0 Z " fill="#d1d5db" transform="translate(497,129)"/>
<path d="M0 0 C0.66 0.33 1.32 0.66 2 1 C1.67 1.99 1.34 2.98 1 4 C-0.98 4.33 -2.96 4.66 -5 5 C-4 2 -4 2 -2.0625 0.75 C-1.381875 0.5025 -0.70125 0.255 0 0 Z " fill="#d1d5db" transform="translate(597,782)"/>
<path d="M0 0 C0.66 0.66 1.32 1.32 2 2 C1.13375 2.37125 1.13375 2.37125 0.25 2.75 C-2.3002997 4.16683317 -4.01785701 5.87627537 -6 8 C-4.73058503 4.08597051 -3.48832306 2.20927127 0 0 Z " fill="#d1d5db" transform="translate(379,407)"/>
<path d="M0 0 C0.66 0.33 1.32 0.66 2 1 C0.625 3.5 0.625 3.5 -1 6 C-1.66 6 -2.32 6 -3 6 C-3.66 6.66 -4.32 7.32 -5 8 C-4.45773019 4.20411134 -2.79872437 2.52788007 0 0 Z " fill="#d1d5db" transform="translate(458,535)"/>
</svg>
